HIERARCHY
ROOT SpineBase
{
  OFFSET 0.000000 0.000000 0.000000
  CHANNELS 6 Xposition Yposition Zposition Zrotation Xrotation Yrotation
  JOINT SpineMid
  {
    OFFSET 0.000000 34.093948 -0.000000
    CHANNELS 3 Zrotation Xrotation Yrotation
    JOINT SpineShoulder
    {
      OFFSET 0.060852 25.201311 -0.838581
      CHANNELS 3 Zrotation Xrotation Yrotation
      JOINT Neck
      {
        OFFSET 0.047128 8.290779 -0.607642
        CHANNELS 3 Zrotation Xrotation Yrotation
        JOINT Head
        {
          OFFSET -0.809683 11.912286 1.318512
          CHANNELS 3 Zrotation Xrotation Yrotation
          End Site
          {
            OFFSET 0 0 0
          }
        }
      }
      JOINT ShoulderLeft
      {
        OFFSET -16.830822 -6.787287 -0.061060
        CHANNELS 3 Zrotation Xrotation Yrotation
        JOINT ElbowLeft
        {
          OFFSET -7.105186 -23.018646 8.837799
          CHANNELS 3 Zrotation Xrotation Yrotation
          JOINT WristLeft
          {
            OFFSET 7.196666 -19.714463 7.918026
            CHANNELS 3 Zrotation Xrotation Yrotation
            JOINT HandLeft
            {
              OFFSET 2.075874 -6.134690 1.859801
              CHANNELS 3 Zrotation Xrotation Yrotation
              JOINT HandTipLeft
              {
                OFFSET 4.718955 -8.200211 5.908701
                CHANNELS 3 Zrotation Xrotation Yrotation
                End Site
                {
                  OFFSET 0 0 0
                }
              }
              JOINT ThumbLeft
              {
                OFFSET -4.278518 -2.854773 -4.968792
                CHANNELS 3 Zrotation Xrotation Yrotation
                End Site
                {
                  OFFSET 0 0 0
                }
              }
            }
          }
        }
      }
      JOINT ShoulderRight
      {
        OFFSET 13.647368 -7.712783 -10.400245
        CHANNELS 3 Zrotation Xrotation Yrotation
        JOINT ElbowRight
        {
          OFFSET 5.050987 -25.649377 1.620855
          CHANNELS 3 Zrotation Xrotation Yrotation
          JOINT WristRight
          {
            OFFSET 2.157376 -18.802612 5.428607
            CHANNELS 3 Zrotation Xrotation Yrotation
            JOINT HandRight
            {
              OFFSET -1.272552 -7.943496 3.357949
              CHANNELS 3 Zrotation Xrotation Yrotation
              JOINT HandTipRight
              {
                OFFSET 1.271159 -6.635254 2.037074
                CHANNELS 3 Zrotation Xrotation Yrotation
                End Site
                {
                  OFFSET 0 0 0
                }
              }
              JOINT ThumbRight
              {
                OFFSET -1.642348 -0.545990 -5.931207
                CHANNELS 3 Zrotation Xrotation Yrotation
                End Site
                {
                  OFFSET 0 0 0
                }
              }
            }
          }
        }
      }
    }
  }
  JOINT HipLeft
  {
    OFFSET -7.116906 0.660325 -1.073689
    CHANNELS 3 Zrotation Xrotation Yrotation
    JOINT KneeLeft
    {
      OFFSET -1.952833 -28.552560 5.900594
      CHANNELS 3 Zrotation Xrotation Yrotation
      JOINT AnkleLeft
      {
        OFFSET 14.413704 -35.673681 -13.764291
        CHANNELS 3 Zrotation Xrotation Yrotation
        JOINT FootLeft
        {
          OFFSET -8.278594 2.190964 6.337032
          CHANNELS 3 Zrotation Xrotation Yrotation
          End Site
          {
            OFFSET 0 0 0
          }
        }
      }
    }
  }
  JOINT HipRight
  {
    OFFSET 7.723652 1.502587 -5.605796
    CHANNELS 3 Zrotation Xrotation Yrotation
    JOINT KneeRight
    {
      OFFSET 1.358628 -30.581050 -1.050265
      CHANNELS 3 Zrotation Xrotation Yrotation
      JOINT AnkleRight
      {
        OFFSET -20.901434 -27.865650 14.026094
        CHANNELS 3 Zrotation Xrotation Yrotation
        JOINT FootRight
        {
          OFFSET 9.235056 -2.688845 -10.806121
          CHANNELS 3 Zrotation Xrotation Yrotation
          End Site
          {
            OFFSET 0 0 0
          }
        }
      }
    }
  }
}
MOTION
Frames: 15
Frame Time: 0.033333
-26.396664 68.140346 232.293231 1.844967 7.395728 16.634702 -0.466716 0.331789 -16.765884 -0.469770 0.854799 -0.049924 1.437069 0.200030 0.423988 0.000000 0.000000 0.000000 2.901953 0.695960 -1.266264 -4.751064 -8.549295 0.741329 1.500690 0.285211 0.659294 -0.315873 -0.959063 -0.422263 0.000000 0.000000 0.000000 0.000000 0.000000 0.000000 1.293757 -0.122104 1.860856 -0.758760 2.604397 -0.202222 5.197948 -1.770545 0.280704 -10.941283 4.158626 -0.917373 0.000000 0.000000 0.000000 0.000000 0.000000 0.000000 0.212751 -7.106208 -15.685971 -19.589928 -18.610291 -5.523920 26.344863 -3.979516 -105.877822 0.000000 0.000000 0.000000 1.038287 -8.451770 -16.529919 31.760078 23.697709 -9.774807 -47.845732 -25.429264 38.479805 0.000000 0.000000 0.000000
-26.317483 68.196032 231.747470 1.725867 8.168829 16.434163 -0.620399 0.290378 -16.591240 -0.466821 0.904925 -0.063647 1.366382 -0.283371 0.512263 0.000000 0.000000 0.000000 2.840134 0.975684 -1.696045 -5.915070 -8.461762 0.748274 4.252128 3.400204 2.706826 -1.768843 -5.152346 -2.340494 0.000000 0.000000 0.000000 0.000000 0.000000 0.000000 1.128239 -0.432147 1.943702 -0.524283 3.015512 -0.203767 5.676303 -1.453280 0.241839 -11.968370 3.355206 -1.234035 0.000000 0.000000 0.000000 0.000000 0.000000 0.000000 -0.277226 -7.825693 -15.601917 -24.299719 -23.274167 -7.666939 24.807428 0.387251 -116.236167 0.000000 0.000000 0.000000 0.780596 -9.033683 -16.318037 36.021180 25.107604 -11.029394 -53.388971 -27.316804 41.090203 0.000000 0.000000 0.000000
-26.209108 68.223202 231.180371 1.629144 8.998492 16.190340 -0.635542 0.527706 -16.374012 -0.357061 0.544048 -0.057461 0.917332 -1.290974 0.538492 0.000000 0.000000 0.000000 2.361404 1.397621 -2.306589 -6.955097 -8.052780 0.983998 6.809956 5.419002 4.401813 -2.225527 -6.896070 -2.345667 0.000000 0.000000 0.000000 0.000000 0.000000 0.000000 0.782331 -0.240846 2.078270 -0.101762 2.751116 -0.240525 5.472831 -0.332007 -0.286901 -10.314301 1.818343 -0.401919 0.000000 0.000000 0.000000 0.000000 0.000000 0.000000 -0.795399 -8.579173 -15.491118 -27.151652 -26.375221 -9.481618 23.994584 4.282229 -120.546683 0.000000 0.000000 0.000000 0.291270 -9.536681 -16.094716 37.105770 24.934921 -10.642654 -54.308346 -26.880220 41.524312 0.000000 0.000000 0.000000
-26.110512 68.167773 230.674986 1.566106 9.333317 16.165183 -0.644109 0.069374 -16.335031 -0.297826 0.630979 -0.046776 0.891733 -2.816501 0.434331 0.000000 0.000000 0.000000 2.223450 2.289032 -2.650840 -9.185167 -7.859812 0.325443 9.557377 6.801529 6.070802 -1.399429 -6.907960 -0.691737 0.000000 0.000000 0.000000 0.000000 0.000000 0.000000 0.694951 -0.376543 2.034055 0.277894 2.403772 -0.118275 4.840581 0.992634 -0.772560 -10.996560 -0.385574 -0.934824 0.000000 0.000000 0.000000 0.000000 0.000000 0.000000 -1.096252 -8.924548 -15.549314 -27.498224 -27.361994 -10.170784 20.643788 6.899785 -120.738949 0.000000 0.000000 0.000000 0.391285 -9.781960 -16.038364 32.842505 22.854055 -8.479866 -49.100873 -24.308565 39.919959 0.000000 0.000000 0.000000
-26.023934 68.104330 230.279333 1.493009 9.396373 16.096850 -0.587902 -0.614507 -16.229900 -0.203273 0.492973 -0.021756 1.145428 -3.691756 0.288554 0.000000 0.000000 0.000000 2.278947 3.798745 -2.874659 -11.825405 -8.012974 -0.794758 11.956150 7.154715 7.300120 1.731131 -2.415360 4.861576 0.000000 0.000000 0.000000 0.000000 0.000000 0.000000 0.507649 0.413310 2.001349 0.861641 1.171232 -0.006897 3.696669 2.488597 -1.359267 -10.983823 -1.693126 -1.078624 0.000000 0.000000 0.000000 0.000000 0.000000 0.000000 -0.984762 -9.197464 -15.425495 -25.189394 -25.865281 -9.363105 21.981849 4.643985 -117.787090 0.000000 0.000000 0.000000 0.932712 -9.943424 -15.890410 31.758699 22.556391 -8.216392 -48.485544 -24.063858 40.350240 0.000000 0.000000 0.000000
-25.870787 67.995452 229.981190 1.662684 8.361245 16.402699 -0.474344 -1.473269 -16.473196 -0.168111 0.588949 0.009410 1.465725 -4.451611 0.022167 0.000000 0.000000 0.000000 2.458623 4.860056 -2.493324 -14.776146 -7.002453 -2.426016 9.702513 -0.225685 4.250658 12.516382 21.046174 22.773552 0.000000 0.000000 0.000000 0.000000 0.000000 0.000000 0.637892 0.893295 1.731248 0.424320 1.690247 0.123908 4.079803 -0.361181 -0.253500 -10.804407 0.159214 -1.636507 0.000000 0.000000 0.000000 0.000000 0.000000 0.000000 -0.735000 -8.599435 -15.622955 -25.874934 -25.614822 -9.319718 33.993210 0.122569 -119.152773 0.000000 0.000000 0.000000 1.558473 -9.564608 -16.179270 30.537196 22.872621 -8.531677 -47.993182 -24.493476 40.785817 0.000000 0.000000 0.000000
-25.646747 67.632997 230.022241 2.074034 6.207634 17.191480 -0.402943 -1.988546 -17.197684 -0.139819 0.450928 0.051227 2.251893 -4.998540 -0.356653 0.000000 0.000000 0.000000 2.748237 6.170688 -1.841230 -17.219471 -5.823668 -4.065303 11.165815 -0.953262 4.534601 3.839103 61.384399 66.254539 0.000000 0.000000 0.000000 0.000000 0.000000 0.000000 1.135438 1.528621 1.292043 -0.282341 1.848471 0.314617 4.093668 -2.508451 0.819092 -10.655792 0.833326 -2.601275 0.000000 0.000000 0.000000 0.000000 0.000000 0.000000 -0.283307 -6.880482 -16.280110 -26.879124 -24.973565 -8.964603 46.632789 -3.286036 -115.067041 0.000000 0.000000 0.000000 2.388204 -8.236035 -17.022649 29.270006 23.457462 -9.111022 -47.790462 -25.465142 41.103470 0.000000 0.000000 0.000000
-25.424811 67.118543 230.330483 2.768249 3.366004 20.969407 -0.551579 -2.522764 -20.886685 -0.099950 0.262521 0.107248 2.632682 -5.365070 -0.850185 0.000000 0.000000 0.000000 3.346995 7.909389 -0.999420 -24.311514 -6.166897 -9.321648 29.979364 8.448095 12.257784 -69.213672 72.048155 140.898597 0.000000 0.000000 0.000000 0.000000 0.000000 0.000000 1.962220 2.320627 0.679781 -1.522924 2.033776 0.545346 3.975198 -3.760013 1.750403 -9.844185 2.911482 -2.974896 0.000000 0.000000 0.000000 0.000000 0.000000 0.000000 0.151519 -3.276962 -20.113411 -27.315972 -25.591560 -9.245308 52.688153 -0.495264 -104.845149 0.000000 0.000000 0.000000 3.575596 -7.072404 -20.912087 26.617694 24.332185 -9.851081 -47.134656 -26.768819 41.656726 0.000000 0.000000 0.000000
-25.087257 66.413573 230.757813 3.493609 -0.571251 20.845724 -0.491583 -3.003436 -20.608293 -0.078671 0.219814 0.162995 3.474714 -5.160793 -1.495045 0.000000 0.000000 0.000000 2.854107 8.212771 0.238633 -22.368585 -3.396197 -8.793883 32.589913 18.834127 14.297929 -53.086129 71.706217 118.235799 0.000000 0.000000 0.000000 0.000000 0.000000 0.000000 3.061904 2.506970 -0.272225 -3.301225 2.230043 0.910958 5.600072 -3.753391 3.497102 -11.193688 -0.341344 -5.264150 0.000000 0.000000 0.000000 0.000000 0.000000 0.000000 1.521354 -0.245728 -19.787145 -29.407425 -23.943741 -8.176297 49.228352 3.764373 -94.830099 0.000000 0.000000 0.000000 4.263616 -3.985664 -21.068232 26.989698 25.621824 -11.118405 -48.250609 -29.133964 41.083479 0.000000 0.000000 0.000000
-24.590910 65.614351 231.396157 4.354557 -4.785377 17.655113 -0.247946 -3.229928 -17.202878 -0.056105 0.203357 0.217636 4.287939 -3.625921 -2.232658 0.000000 0.000000 0.000000 1.555236 7.272003 1.745564 -14.988370 2.872703 -5.281779 19.974276 24.769597 13.584639 -32.071613 60.806554 82.779433 0.000000 0.000000 0.000000 0.000000 0.000000 0.000000 3.910059 3.011658 -1.262349 -4.239018 2.354211 1.504835 4.575903 -3.649181 3.968599 -9.367914 -5.874937 -6.535153 0.000000 0.000000 0.000000 0.000000 0.000000 0.000000 1.941906 2.712113 -16.459281 -30.100359 -21.757794 -6.818905 28.304665 11.658956 -69.276713 0.000000 0.000000 0.000000 4.127657 0.638189 -18.130881 28.719179 26.643392 -12.643823 -49.651952 -32.017271 39.747428 0.000000 0.000000 0.000000
-23.991274 64.660757 232.023573 5.218959 -9.508116 12.293558 0.120487 -2.887705 -11.562922 -0.061677 0.262078 0.261112 4.984734 -2.046233 -3.020549 0.000000 0.000000 0.000000 -0.098148 5.956489 3.267412 -1.127115 11.342748 -0.991374 -1.368758 41.680943 14.380078 1.102761 28.848261 60.875793 0.000000 0.000000 0.000000 0.000000 0.000000 0.000000 5.075030 2.772887 -2.393339 -5.470349 6.025842 2.470158 -0.469486 -6.308563 2.657257 -4.285246 -11.955808 -6.688742 0.000000 0.000000 0.000000 0.000000 0.000000 0.000000 2.001378 5.383689 -10.778489 -31.374382 -18.379720 -4.656801 -5.960131 3.832008 -28.413052 0.000000 0.000000 0.000000 2.779463 6.445966 -12.782122 31.412605 27.340467 -14.094927 -51.671834 -35.310949 37.857840 0.000000 0.000000 0.000000
-23.344422 63.668133 232.550309 6.008221 -14.075205 5.270633 0.415625 -2.072841 -4.232322 -0.075445 0.269039 0.297836 5.359671 -0.772388 -3.710902 0.000000 0.000000 0.000000 -1.978907 4.627742 4.581208 17.393751 20.777804 1.050394 -13.655774 47.222191 5.746673 20.177032 -0.649844 55.773978 0.000000 0.000000 0.000000 0.000000 0.000000 0.000000 6.134670 2.321416 -3.471691 -5.620351 5.112346 3.209156 -2.354873 20.308316 -1.908026 -4.940912 -40.259037 -5.794299 0.000000 0.000000 0.000000 0.000000 0.000000 0.000000 1.663045 7.387288 -3.275740 -33.405875 -14.450071 -1.953233 -22.398651 -11.846848 -8.976795 0.000000 0.000000 0.000000 1.200605 13.322914 -5.603518 31.127483 25.941678 -13.555938 -52.157380 -37.743719 36.481451 0.000000 0.000000 0.000000
-22.579181 62.725671 233.113333 6.782858 -18.148019 -2.932902 0.358504 -1.045286 4.312221 -0.126906 0.133290 0.337837 6.375918 0.893560 -4.529167 0.000000 0.000000 0.000000 -4.102052 3.563934 5.581172 38.017644 28.889595 -0.525910 -34.904358 61.883245 -2.222193 43.497642 -22.195589 68.618014 0.000000 0.000000 0.000000 0.000000 0.000000 0.000000 6.973816 2.138052 -4.413704 -4.578666 -1.509398 3.672522 -1.128397 0.414345 5.542477 -7.310648 -15.269918 -10.393350 0.000000 0.000000 0.000000 0.000000 0.000000 0.000000 0.804398 8.686841 5.519132 -35.713816 -10.208838 1.264754 -31.457157 -22.800428 -3.682863 0.000000 0.000000 0.000000 -3.850828 19.908680 3.856418 32.516492 23.955804 -12.528645 -53.441213 -39.845784 34.476698 0.000000 0.000000 0.000000
-22.267295 61.955914 233.051299 6.932684 -21.303928 -9.063827 0.295222 -0.726902 10.666604 -0.198175 0.423154 0.338218 6.801585 1.447140 -5.014144 0.000000 0.000000 0.000000 -9.587003 1.883803 5.854481 61.791696 34.991578 -4.835495 -12.180228 56.422020 -22.188429 31.665462 -40.993259 52.812265 0.000000 0.000000 0.000000 0.000000 0.000000 0.000000 8.282989 1.662202 -5.290576 -2.055046 -12.883982 4.525486 -0.381628 12.068226 6.988046 -9.602083 -17.389034 -11.951284 0.000000 0.000000 0.000000 0.000000 0.000000 0.000000 0.642271 9.334071 12.015781 -37.464139 -7.152454 3.553037 -42.824657 -25.728758 -13.970926 0.000000 0.000000 0.000000 -7.369895 24.512510 11.004336 31.614140 21.959726 -11.209108 -53.784769 -41.087967 33.412782 0.000000 0.000000 0.000000
-22.204294 61.445495 232.450570 6.802196 -23.327130 -11.416030 0.212436 -0.422102 13.102581 -0.204801 0.440397 0.338382 6.158763 1.547203 -4.999282 0.000000 0.000000 0.000000 -7.043487 2.198570 6.713925 65.299872 35.158209 -7.515113 -6.308752 47.118329 -22.474581 16.027802 -48.646732 34.640398 0.000000 0.000000 0.000000 0.000000 0.000000 0.000000 9.478674 1.255109 -5.947341 0.081389 -24.227754 5.719395 4.370753 0.461365 13.211087 -7.194876 3.999355 -15.581583 0.000000 0.000000 0.000000 0.000000 0.000000 0.000000 0.565350 9.544509 14.527470 -37.566403 -5.769068 4.317262 -48.698536 -24.448348 -21.355583 0.000000 0.000000 0.000000 -8.481573 26.594127 13.690942 30.714245 21.380569 -10.703311 -53.930703 -41.555127 32.920354 0.000000 0.000000 0.000000
